<mxfile host="app.diagrams.net" modified="2021-07-24T19:54:39.774Z" agent="5.0 (Macintosh)" etag="dTiQyKS8pYeWyDXxwcLH" version="14.9.2" type="github">
  <diagram id="hyk8w-bVJRb5cHFdbb5j" name="Page-1">
    <mxGraphModel dx="1666" dy="2028" grid="1" gridSize="10" guides="1" tooltips="1" connect="1" arrows="1" fold="1" page="1" pageScale="1" pageWidth="850" pageHeight="1100" math="0" shadow="0">
      <root>
        <mxCell id="0" />
        <mxCell id="1" parent="0" />
        <mxCell id="-iayDu2l66xgWA1nQs0N-4" value="" style="rounded=0;whiteSpace=wrap;html=1;" parent="1" vertex="1">
          <mxGeometry x="40" y="50" width="260" height="480" as="geometry" />
        </mxCell>
        <mxCell id="-iayDu2l66xgWA1nQs0N-5" value="" style="rounded=0;whiteSpace=wrap;html=1;" parent="1" vertex="1">
          <mxGeometry x="50" y="60" width="260" height="480" as="geometry" />
        </mxCell>
        <mxCell id="-iayDu2l66xgWA1nQs0N-6" value="" style="rounded=0;whiteSpace=wrap;html=1;" parent="1" vertex="1">
          <mxGeometry x="60" y="70" width="260" height="480" as="geometry" />
        </mxCell>
        <mxCell id="-iayDu2l66xgWA1nQs0N-7" value="" style="rounded=0;whiteSpace=wrap;html=1;" parent="1" vertex="1">
          <mxGeometry x="70" y="80" width="260" height="480" as="geometry" />
        </mxCell>
        <mxCell id="-iayDu2l66xgWA1nQs0N-8" value="N Device" style="rounded=0;whiteSpace=wrap;html=1;verticalAlign=top;fontStyle=1" parent="1" vertex="1">
          <mxGeometry x="80" y="90" width="260" height="480" as="geometry" />
        </mxCell>
        <mxCell id="-iayDu2l66xgWA1nQs0N-15" style="edgeStyle=orthogonalEdgeStyle;rounded=0;orthogonalLoop=1;jettySize=auto;html=1;" parent="1" source="-iayDu2l66xgWA1nQs0N-9" target="-iayDu2l66xgWA1nQs0N-12" edge="1">
          <mxGeometry relative="1" as="geometry" />
        </mxCell>
        <mxCell id="-iayDu2l66xgWA1nQs0N-9" value="N Droid" style="shape=image;html=1;verticalAlign=top;verticalLabelPosition=bottom;labelBackgroundColor=#ffffff;imageAspect=0;aspect=fixed;image=https://cdn2.iconfinder.com/data/icons/innovation-technology-1/512/tech_0011-128.png" parent="1" vertex="1">
          <mxGeometry x="128" y="300" width="94" height="94" as="geometry" />
        </mxCell>
        <mxCell id="-iayDu2l66xgWA1nQs0N-16" style="edgeStyle=orthogonalEdgeStyle;rounded=0;orthogonalLoop=1;jettySize=auto;html=1;" parent="1" source="-iayDu2l66xgWA1nQs0N-10" target="-iayDu2l66xgWA1nQs0N-13" edge="1">
          <mxGeometry relative="1" as="geometry" />
        </mxCell>
        <mxCell id="-iayDu2l66xgWA1nQs0N-10" value="N Mobile App" style="shape=image;html=1;verticalAlign=top;verticalLabelPosition=bottom;labelBackgroundColor=#ffffff;imageAspect=0;aspect=fixed;image=https://cdn2.iconfinder.com/data/icons/kitchen-appliances-computers-and-electronics/32/Appliances-06-128.png" parent="1" vertex="1">
          <mxGeometry x="118" y="135" width="104" height="104" as="geometry" />
        </mxCell>
        <mxCell id="-iayDu2l66xgWA1nQs0N-17" style="edgeStyle=orthogonalEdgeStyle;rounded=0;orthogonalLoop=1;jettySize=auto;html=1;entryX=0;entryY=0.5;entryDx=0;entryDy=0;" parent="1" source="-iayDu2l66xgWA1nQs0N-11" target="-iayDu2l66xgWA1nQs0N-14" edge="1">
          <mxGeometry relative="1" as="geometry" />
        </mxCell>
        <mxCell id="-iayDu2l66xgWA1nQs0N-11" value="N IoT Camera" style="outlineConnect=0;fontColor=#232F3E;gradientColor=none;fillColor=#277116;strokeColor=none;dashed=0;verticalLabelPosition=bottom;verticalAlign=top;align=center;html=1;fontSize=12;fontStyle=0;aspect=fixed;pointerEvents=1;shape=mxgraph.aws4.camera;" parent="1" vertex="1">
          <mxGeometry x="131" y="462" width="78" height="78" as="geometry" />
        </mxCell>
        <mxCell id="-iayDu2l66xgWA1nQs0N-25" style="edgeStyle=orthogonalEdgeStyle;rounded=0;orthogonalLoop=1;jettySize=auto;html=1;entryX=0;entryY=0.5;entryDx=0;entryDy=0;" parent="1" source="-iayDu2l66xgWA1nQs0N-12" target="-iayDu2l66xgWA1nQs0N-18" edge="1">
          <mxGeometry relative="1" as="geometry" />
        </mxCell>
        <mxCell id="-iayDu2l66xgWA1nQs0N-12" value="Frames" style="shape=image;html=1;verticalAlign=top;verticalLabelPosition=bottom;labelBackgroundColor=#ffffff;imageAspect=0;aspect=fixed;image=https://cdn4.iconfinder.com/data/icons/48x48-free-object-icons/48/Multimedia.png" parent="1" vertex="1">
          <mxGeometry x="262" y="323" width="48" height="48" as="geometry" />
        </mxCell>
        <mxCell id="-iayDu2l66xgWA1nQs0N-28" style="edgeStyle=orthogonalEdgeStyle;rounded=0;orthogonalLoop=1;jettySize=auto;html=1;entryX=0;entryY=0.5;entryDx=0;entryDy=0;" parent="1" source="-iayDu2l66xgWA1nQs0N-13" target="-iayDu2l66xgWA1nQs0N-27" edge="1">
          <mxGeometry relative="1" as="geometry" />
        </mxCell>
        <mxCell id="-iayDu2l66xgWA1nQs0N-13" value="Frames" style="shape=image;html=1;verticalAlign=top;verticalLabelPosition=bottom;labelBackgroundColor=#ffffff;imageAspect=0;aspect=fixed;image=https://cdn4.iconfinder.com/data/icons/48x48-free-object-icons/48/Multimedia.png" parent="1" vertex="1">
          <mxGeometry x="262" y="163" width="48" height="48" as="geometry" />
        </mxCell>
        <mxCell id="-iayDu2l66xgWA1nQs0N-26" style="edgeStyle=orthogonalEdgeStyle;rounded=0;orthogonalLoop=1;jettySize=auto;html=1;entryX=0;entryY=0.5;entryDx=0;entryDy=0;" parent="1" source="-iayDu2l66xgWA1nQs0N-14" target="-iayDu2l66xgWA1nQs0N-18" edge="1">
          <mxGeometry relative="1" as="geometry" />
        </mxCell>
        <mxCell id="-iayDu2l66xgWA1nQs0N-14" value="Frames" style="shape=image;html=1;verticalAlign=top;verticalLabelPosition=bottom;labelBackgroundColor=#ffffff;imageAspect=0;aspect=fixed;image=https://cdn4.iconfinder.com/data/icons/48x48-free-object-icons/48/Multimedia.png" parent="1" vertex="1">
          <mxGeometry x="257" y="477" width="48" height="48" as="geometry" />
        </mxCell>
        <mxCell id="-iayDu2l66xgWA1nQs0N-32" style="edgeStyle=orthogonalEdgeStyle;rounded=0;orthogonalLoop=1;jettySize=auto;html=1;entryX=-0.06;entryY=0.55;entryDx=0;entryDy=0;entryPerimeter=0;" parent="1" source="-iayDu2l66xgWA1nQs0N-18" target="-iayDu2l66xgWA1nQs0N-30" edge="1">
          <mxGeometry relative="1" as="geometry" />
        </mxCell>
        <mxCell id="-iayDu2l66xgWA1nQs0N-18" value="MQTT Broker" style="aspect=fixed;perimeter=ellipsePerimeter;html=1;align=center;shadow=0;dashed=0;fontColor=#4277BB;labelBackgroundColor=#ffffff;fontSize=12;spacingTop=3;image;image=img/lib/ibm/applications/service_broker.svg;" parent="1" vertex="1">
          <mxGeometry x="480" y="430" width="90" height="90" as="geometry" />
        </mxCell>
        <mxCell id="-iayDu2l66xgWA1nQs0N-31" style="edgeStyle=orthogonalEdgeStyle;rounded=0;orthogonalLoop=1;jettySize=auto;html=1;" parent="1" source="-iayDu2l66xgWA1nQs0N-27" target="-iayDu2l66xgWA1nQs0N-29" edge="1">
          <mxGeometry relative="1" as="geometry" />
        </mxCell>
        <mxCell id="-iayDu2l66xgWA1nQs0N-27" value="Services Bus" style="aspect=fixed;html=1;points=[];align=center;image;fontSize=12;image=img/lib/mscae/Service_Bus.svg;shadow=0;dashed=0;fontFamily=Helvetica;fontColor=#4277BB;strokeColor=#000000;fillColor=#ffffff;" parent="1" vertex="1">
          <mxGeometry x="480" y="70" width="90" height="90" as="geometry" />
        </mxCell>
        <mxCell id="-iayDu2l66xgWA1nQs0N-40" style="edgeStyle=orthogonalEdgeStyle;rounded=0;orthogonalLoop=1;jettySize=auto;html=1;" parent="1" source="-iayDu2l66xgWA1nQs0N-29" target="-iayDu2l66xgWA1nQs0N-34" edge="1">
          <mxGeometry relative="1" as="geometry" />
        </mxCell>
        <mxCell id="-iayDu2l66xgWA1nQs0N-46" style="edgeStyle=orthogonalEdgeStyle;rounded=0;orthogonalLoop=1;jettySize=auto;html=1;" parent="1" source="-iayDu2l66xgWA1nQs0N-29" target="-iayDu2l66xgWA1nQs0N-45" edge="1">
          <mxGeometry relative="1" as="geometry" />
        </mxCell>
        <mxCell id="-iayDu2l66xgWA1nQs0N-29" value="Consumer Services bus" style="aspect=fixed;html=1;points=[];align=center;image;fontSize=12;image=img/lib/mscae/Databricks.svg;" parent="1" vertex="1">
          <mxGeometry x="690" y="75" width="83.33" height="80" as="geometry" />
        </mxCell>
        <mxCell id="-iayDu2l66xgWA1nQs0N-41" style="edgeStyle=orthogonalEdgeStyle;rounded=0;orthogonalLoop=1;jettySize=auto;html=1;entryX=0.477;entryY=1.021;entryDx=0;entryDy=0;entryPerimeter=0;" parent="1" source="-iayDu2l66xgWA1nQs0N-30" target="-iayDu2l66xgWA1nQs0N-34" edge="1">
          <mxGeometry relative="1" as="geometry" />
        </mxCell>
        <mxCell id="-iayDu2l66xgWA1nQs0N-60" style="edgeStyle=orthogonalEdgeStyle;rounded=0;orthogonalLoop=1;jettySize=auto;html=1;entryX=0.506;entryY=1.027;entryDx=0;entryDy=0;entryPerimeter=0;" parent="1" source="-iayDu2l66xgWA1nQs0N-30" target="-iayDu2l66xgWA1nQs0N-45" edge="1">
          <mxGeometry relative="1" as="geometry" />
        </mxCell>
        <mxCell id="-iayDu2l66xgWA1nQs0N-30" value="Consumer MQTT Broker" style="aspect=fixed;html=1;points=[];align=center;image;fontSize=12;image=img/lib/mscae/Databricks.svg;" parent="1" vertex="1">
          <mxGeometry x="680" y="431" width="83.33" height="80" as="geometry" />
        </mxCell>
        <mxCell id="-iayDu2l66xgWA1nQs0N-34" value="" style="rounded=0;whiteSpace=wrap;html=1;verticalAlign=middle;labelPosition=center;verticalLabelPosition=middle;align=center;spacingLeft=4;" parent="1" vertex="1">
          <mxGeometry x="511.67" y="224.5" width="440" height="155.5" as="geometry" />
        </mxCell>
        <mxCell id="-iayDu2l66xgWA1nQs0N-87" style="edgeStyle=orthogonalEdgeStyle;rounded=0;orthogonalLoop=1;jettySize=auto;html=1;" parent="1" source="-iayDu2l66xgWA1nQs0N-42" target="-iayDu2l66xgWA1nQs0N-43" edge="1">
          <mxGeometry relative="1" as="geometry" />
        </mxCell>
        <mxCell id="-iayDu2l66xgWA1nQs0N-42" value="RAW" style="aspect=fixed;html=1;points=[];align=center;image;fontSize=12;image=img/lib/mscae/Data_Lake.svg;" parent="1" vertex="1">
          <mxGeometry x="570" y="267.5" width="49.4" height="65" as="geometry" />
        </mxCell>
        <mxCell id="-iayDu2l66xgWA1nQs0N-88" style="edgeStyle=orthogonalEdgeStyle;rounded=0;orthogonalLoop=1;jettySize=auto;html=1;" parent="1" source="-iayDu2l66xgWA1nQs0N-43" target="-iayDu2l66xgWA1nQs0N-44" edge="1">
          <mxGeometry relative="1" as="geometry" />
        </mxCell>
        <mxCell id="-iayDu2l66xgWA1nQs0N-43" value="CURATE" style="aspect=fixed;html=1;points=[];align=center;image;fontSize=12;image=img/lib/mscae/Data_Lake.svg;" parent="1" vertex="1">
          <mxGeometry x="705.3" y="267.5" width="49.4" height="65" as="geometry" />
        </mxCell>
        <mxCell id="-iayDu2l66xgWA1nQs0N-44" value="MASTER" style="aspect=fixed;html=1;points=[];align=center;image;fontSize=12;image=img/lib/mscae/Data_Lake.svg;" parent="1" vertex="1">
          <mxGeometry x="849.4" y="267.5" width="49.4" height="65" as="geometry" />
        </mxCell>
        <mxCell id="-iayDu2l66xgWA1nQs0N-49" style="edgeStyle=orthogonalEdgeStyle;rounded=0;orthogonalLoop=1;jettySize=auto;html=1;" parent="1" source="-iayDu2l66xgWA1nQs0N-45" target="-iayDu2l66xgWA1nQs0N-48" edge="1">
          <mxGeometry relative="1" as="geometry" />
        </mxCell>
        <mxCell id="-iayDu2l66xgWA1nQs0N-61" style="edgeStyle=orthogonalEdgeStyle;rounded=0;orthogonalLoop=1;jettySize=auto;html=1;" parent="1" source="-iayDu2l66xgWA1nQs0N-45" target="-iayDu2l66xgWA1nQs0N-66" edge="1">
          <mxGeometry relative="1" as="geometry" />
        </mxCell>
        <mxCell id="-iayDu2l66xgWA1nQs0N-45" value="Services Bus" style="aspect=fixed;html=1;points=[];align=center;image;fontSize=12;image=img/lib/mscae/Service_Bus_Relay.svg;" parent="1" vertex="1">
          <mxGeometry x="1050" y="286" width="85" height="85" as="geometry" />
        </mxCell>
        <mxCell id="-iayDu2l66xgWA1nQs0N-51" style="edgeStyle=orthogonalEdgeStyle;rounded=0;orthogonalLoop=1;jettySize=auto;html=1;" parent="1" source="-iayDu2l66xgWA1nQs0N-48" target="-iayDu2l66xgWA1nQs0N-55" edge="1">
          <mxGeometry relative="1" as="geometry">
            <mxPoint x="1428.5000000000005" y="298.5" as="targetPoint" />
          </mxGeometry>
        </mxCell>
        <mxCell id="-iayDu2l66xgWA1nQs0N-48" value="Cached DB" style="aspect=fixed;html=1;points=[];align=center;image;fontSize=12;image=img/lib/mscae/Cache_Redis_Product.svg;" parent="1" vertex="1">
          <mxGeometry x="1260.19" y="73.5" width="98.81" height="83" as="geometry" />
        </mxCell>
        <mxCell id="-iayDu2l66xgWA1nQs0N-55" value="Mobile App" style="aspect=fixed;html=1;points=[];align=center;image;fontSize=12;image=img/lib/mscae/App_Service_Mobile_App.svg;" parent="1" vertex="1">
          <mxGeometry x="1500" y="65" width="68" height="100" as="geometry" />
        </mxCell>
        <mxCell id="-iayDu2l66xgWA1nQs0N-57" value="Web App" style="aspect=fixed;html=1;points=[];align=center;image;fontSize=12;image=img/lib/mscae/App_Service.svg;" parent="1" vertex="1">
          <mxGeometry x="1492" y="401" width="84" height="84" as="geometry" />
        </mxCell>
        <mxCell id="-iayDu2l66xgWA1nQs0N-67" style="edgeStyle=orthogonalEdgeStyle;rounded=0;orthogonalLoop=1;jettySize=auto;html=1;" parent="1" source="-iayDu2l66xgWA1nQs0N-66" target="-iayDu2l66xgWA1nQs0N-57" edge="1">
          <mxGeometry relative="1" as="geometry" />
        </mxCell>
        <mxCell id="-iayDu2l66xgWA1nQs0N-66" value="DocumentDB" style="points=[[0,0,0],[0.25,0,0],[0.5,0,0],[0.75,0,0],[1,0,0],[0,1,0],[0.25,1,0],[0.5,1,0],[0.75,1,0],[1,1,0],[0,0.25,0],[0,0.5,0],[0,0.75,0],[1,0.25,0],[1,0.5,0],[1,0.75,0]];outlineConnect=0;fontColor=#232F3E;gradientColor=#4D72F3;gradientDirection=north;fillColor=#3334B9;strokeColor=#ffffff;dashed=0;verticalLabelPosition=bottom;verticalAlign=top;align=center;html=1;fontSize=12;fontStyle=0;aspect=fixed;shape=mxgraph.aws4.resourceIcon;resIcon=mxgraph.aws4.documentdb_with_mongodb_compatibility;" parent="1" vertex="1">
          <mxGeometry x="1260.19" y="394" width="98" height="98" as="geometry" />
        </mxCell>
        <mxCell id="-iayDu2l66xgWA1nQs0N-74" value="" style="shape=image;verticalLabelPosition=bottom;labelBackgroundColor=#ffffff;verticalAlign=top;aspect=fixed;imageAspect=0;image=data:image/jpeg,/9j/4AAQSkZJRgABAQAAAQABAAD/2wCEAAkGBxASEBYTExQWFhYYGB8YGRkZGRsZIRgZGBYYGRggGhgeHikhGR4mHBYYIjIjJiouLy8vGSA1OjcuOSkuLywBCgoKDg0OHBAQGywmISYwOS4uMTg5LjQuLjkuMDk5LC4uLDI5Ny4wMSw3LjcuLC4sLi4wLi4uNy4uLi4uLC4uLv/AABEIAHwBmAMBIgACEQEDEQH/xAAcAAEAAgMBAQEAAAAAAAAAAAAABQYDBAcCAQj/xABSEAACAQIEAQQMCAsGBAcBAAABAgMAEQQFEiExBhMiQQcWMlFSVGFxkpTS0xQVIzVTgZGzFzM0QnJzdJOhsbQIQ1VjsuNiwdHwJCWCg6KjwmT/xAAZAQEAAwEBAAAAAAAAAAAAAAAAAgQFAwH/xAAnEQEAAgIBAwMEAwEAAAAAAAAAAQIDERIEITETQVEFImFxMqHwsf/aAAwDAQACEQMRAD8A7jSlKBSlKBSlKBSlKBSlKBSlKBSlKBSlKBSlKBSlKBWrhsVHJ3LX2BvvuGvpIPWpsbEbG1ZZowylTwYEHzEWNRsmVMyIjSX0DSOja4sLNx2kGkEMOG+29BL1i51dWi/Stqt5L2v9tQ2G5PKgHTO3WoC3HNRoR126UUb3G917168ycnri3OAEi2ybC6hTpXVtcXNr90xPXagnA4Jt/wB8bceH1Vkqv9rosQHFiWJGjZtbSsdQvvvMSPKqnq38jk3ZtQk/vFk7niVmklG+rj8ppJ6wv2BLLmERCHWPlE1p/wASgAkjv7EG1bStcAjrqIkyMNDHEXI5uLm1dRZlYBArqdwCNHAgg3INwSDibk/uSH3L6rlSTpJLaT0rbMdiALAAWNr0ExNKqi7GwuF+tmCqPrJA+usa4uMsVDDUGCkdYJXUAR1XG9REXJsKyEOBoVVsEtfRLHJc2be5jH2t362cbkwkdn5xkY6hdLAlWi5vS1730npg7EEd4sCEuDX2q92tqQenpJsdSLY3CuDbUWNrsrAEmxUb97K+QKZA5e4BB0lb3A5vZt9/xe3e1t36CWgmV0V1N1YBge+CLg/ZWao7Jcv5iIR69YFrEixsFA3N9+G3eFh1VI0ClKUClKUClKUClKUClKUClKUClKUClKUClKUClKUCvhNfah+U8athwrAFTNACCLgg4mIEEHiCKCV1jvimsd8fbUaeT+C8Wg/dR+zURpy5ZDE+GgV1BZvko7WBGkjbfVfavJnTza06x3xTWO+KhcJlWAdQfg2GuRewijNvPtUVyxyrDRxQPHBEjDGYUBljVTviogdwL8K93t74XKlKUFR5cYVJpsvicakfEsGW5GoDCztY2IPFQfqraPIjLPFx6cntV45W/leW/tTf0mJrZGW4eXFzmWKOQgRgF0ViBpY2BI2FBr9pWV/QL6cntU7Scr+gX95J7VZ8dlOCjXWcNAUHdfJJsOs9z1fyrUwkeWy6NOHw41jVvHHst+j1cT3q8mYgjvOmTtKyv6BfTk9qvQ5D5Z4uPTk9qt5MiwBFxhsOR+qT2ajeS+GjjxmPSNFRRJFZVAUC+GjvsNq9GXtGy3xcenJ7VO0bLfFx6cntVY6UFc7Rst8XHpye1TtGy3xcenJ7VZs/5WYDAsq4qZYi4JUEMbgGx4A1FfhRyTxxPRk9mg3+0bLfFx6cntU7Rst8XHpye1Wh+FHJPHE9GT2KfhRyTxxPRk9ig3+0bLfFx6cntU7Rst8XHpye1WfIOVeBxxcYWZZSgBawYWDXt3QHgn7KnKCudo2W+Lj05Pap2jZb4uPTk9qpTOsyTDYeXEOGKxIzsFtchRc2uQL7d+udzdnLLkOl8PjFPeaOMH7DLQXDtGy3xcenJ7VO0bLfFx6cntVS/wAPWV/QYv0Ive0/D1lf0GL9CL3tBdO0bLfFx6cntU7Rst8XHpye1VPg7OWVu6rzWJXUwGpliAW5tdjzuwHE10jMcWIYXlILBFLWW12sOAuQLnymgh+0bLfFx6cntU7Rst8XHpye1W/8Zz+KTenB72nxnP4pN6cHvaDQ7Rst8XHpye1TtGy3xcenJ7Vb/wAZz+KTenB72tXH8oHgjMkuFnVAQCdUBtqYKNhLc7sKDF2jZb4uPTk9qnaNlvi49OT2qsdKCudo2W+Lj05Pap2jZb4uPTk9qrHSgrnaNlvi49OT2qdo2W+Lj05Paqx0oK52jZb4uPTk9qnaNlvi49OT2qsdKCkyZFhsLmWC5iPRr54NZmN7Q7cSe/V2qt5585YDzz/cirJQKUrBFiEYkKysRxsQbXv/AND9hoM9KUoFKUoFKUoFVSbD46JJDGSFBkYKoRj0nxLiwKkk9PDi3Dot9dmnl0qW0s1upRcnzCtH42//AJ5/QHtUGi0OO2Gs6dQa90B0iVTpPR7rm1IPVdvs3OUX4lf1+H/qoa9fG3+RP6A9qqhmfLJpMacCcNLZZcMwlAuEvPC1ph/dnvbm912oJLlpmMio2hioSwJU2JYi9vNa1c0gnx2OmdYYZZmSMBzrjiJV2bTdWPSF0brqx9kCaSPFsl7JJZh3r2Cn+VZexMrDG4sMbnmofs1TVSieWWay2M3TUp0dcvvuP9LTy7C55GoQYIqq7qVkhBBHfOvep/OsXmOIiiQ5bKGSaGZjzuHseZmSRgPlL3IQgX79Xy9q15sfCgu0iKPKwFWIitPdm5c9sutxHb8aQnbHjv8ACsT++wvvq38gzlsQJQ8DwPFJzbI7IxuY0kBujFbaZF663sLjY5V1RsrjhdTfeq/lkuIGLx3NRI459LlpShv8Dw21hG323rpExMbhxe+Vn5Xlv7U39Jia3efEc2Jc9Sxn/wCLW/jUByqnxXwjAFoUUjEta0xO/wAFxH+Vttc8Dwtbeo7k3isyxWFxZxcIikKIVIurPZSVJiO6EgcCQb9QpbtHZLHETeIn5RXKzPp4p9JdiW20XGk36ukQFG9VRs3MEyAFGdBYFnV1HmIA4Vv5MiY3OMImJVZFIm1I4BBtFcXHnA+yuq9oeU+I4f8AdrVSuKckcttbLlxdNn1NImYjXnt4+Fa5LcpWDhpZYtEhCkB1AVuogE7DqNTmR5nhxjseTLGAZIbHWu9sNGNt962e0LKPEsP+7WnaFk/iWG/drVjHXhGt7Z3U5ozX5RWK/pOQY6GQ2jkRyNyFYNt9RrarmuXYCHB59KmFw1lOBRikPNpucQwJOplHUB9VT/KflDioMJJLHhJNa2KhzEwYl1GmyS6rtfSLA7kbHhXRwc4/tAZlLBi8K8bFSYXUkbGxdbi43HDqNc0+N8ZKpaLE4hXXdouekNx4SXa58o3I48OF37MuMOIOCkxUUuFYwuTHZZGvzi7X1CwI33374qg4PM8Ikg+RdApusqSEyqw4Mb9Bv0bDz0HyTMs0VlRpsUrPbSDJKC1zYWBO++1bDYjNhG0nPYnQjBWYSuRqPAAht+HVwrt3JyDk5iFixCtFrC80BI5SzyFiw5stYMSzWt1HaqT2Scdk6uI8uaNJ1+TLKG5qNd9WiwKiQtbpgd/e9BK/2dsVJLNjWkd3bTCNTsWOxltud67hXB+wHI0M2MDK0hKxG8VpNiZTcm/Xfr379dm+Nj9BP6A9qgjuyN80Y39nk/0Gvybh8wcDS/ykfWjH/SeKnyiv0NmvLBsbl+aQnDyx8zFOnO2vE+nUtg3U+267233rgMeYRRX5mEavDltIR5kI0DzkGgzxZA8p1QFWja+ksyoSQuooVJvrAHVt11p4PLHdNYsAW0LcEl242UAG9ha/euKtfJDlRhIpDz0QiLixdBqjvuNTQm+lrErdfCO1WKfOcBEjAPGqptoRTcFuoJYbm2/m3qtmz3pOorMjm+Z5LJCCdUcigDU0bhgrE20nruK/W2f/AJDL+q/5V+WM0xcGKYLG/MIu0cbrZAT3R1JexJ6yPrr9UcoPyGX9Uf5VYidx3GzmGPjhXXIbL9v8BVMzHlhHDMpR9UTBnAvbp2tpP/Dxas3LTHJqdC1iqrpH6VyTXMMRKqROzSsXJsgXoBR13C2uT5aqZc/G2oavT/Sr58cWrOpmf6dZyTlVE0IdgVF9yWDE3PGwPD+VbXLmQNlsrA3B5sgjrBmjrj3JHRJMA7bk7k96uhZjiAMrxMYJZY2j0nc9Eyobd82sdq9wZptOpT+o/TqdNG6z+/h0WlRfx9D4M/q2I93UHyg5e4fCPAJI5ykrFNQhlUq1gVsjoC4O/ckkWGxvVtjvGE+HYnEYsJjDCkM4iRVhifbmIZLksL3vIa3/AIkzD/EpPV4PZqncoM7nwmDzXEwMUdcbEQSo4NFhAQVYG11JG4uL1Xsr5Y5m7IrYqZmkAICxwWQNe1zzO+4/lXPJkikblOlJtPZ1L4lzD/EpPV4PZr58S5h/iUnq8Hs1tclVxAwyjEyGWW7XcqqkjWdNwoA2Ww2HVVRn7IU/PvDHHGzIxU90OBtfuqWy1rXlPhGazFuKyfEmYf4lJ6vB7NR3KCHMMLhzP8PeTS8Y0mCEAh5UQ7hbjZjWnjeWmMjQvzcJA491w7/dV7zHOHxeSGd1Cs0iCy3t0cWijjv1VHFnpk70nbyY1OpTeefOWA88/wByKslVvPPnLAeef7kVJ59iWiwk8qW1Rwu633GpEZhcdYuK7DfYXFqr7cnn5tEWbSY4eZQhT3OgpdgGFzupFrAFT39oHI/j3E4WHEDF4VRNEkgU4djp1qGtfnN7Xre+LuUHjuE9Wb3lBtdr8uuQCQqpDMrC46cj4piNIfq5+M36+bXhYESuWZc0TSMzhi5vwItZmIG7HYBgB5qgPi7lB47hPVm95T4u5QeO4T1ZveUFypVB+MM2w+YYOHET4eWPENIpEcJQjm4Wcblz12q/UClKUClKUCoblJpWDUbKOfgLHYcMTDuT5hx8lTNYMTh0kQpIiup4qwDA9e4OxoK7ypweCxsWhpolYbo4dLqft3HfFVvsZZY+Hx+MjaRJfkoGDxtcEF5gL947Hart2s5f4phv3Mfs1DZJgYYc3xSRRpGvwbDnSihRfncTvYAC+w+yo8I3y93aM+T0/T39vlW5uyjPz0kfwWMKkrxqzSsNfNyMl7c3tuvfrVy5JccJZfksOsb2OuRm1XF7i6iwqPz3lfgooWw5wglYTSCRmtw59y5QjfUTqsdrVDJmAVJJ4+jEp6EbXYhfzRq6yB36qZ61vqJjaNcdpiZ9o8rXkHKM4bVojRiWIJLOAVUkK3cbX42qNh7J+Kw0s7vglvPKHsZm2tFHFYERkH8WD1carfbIVlVY2IWS1tS6rXNmH29dXGLK+dRujqXr26jXCc18Gq6jX4XMPT4s9Z4zMTHysr5ucWuT4kpoMs5fTfVpvhMTtewv9lWCPGRR4qcPIikiMgMwW/RbvmqdkAtg8iH+af6TE1e8bk2FmbXLh4ZGtbU8aObDgLkE23NajPnsoGIy3DRcocDJA6nnVxJZVYMFZYRuLcL6uHkqWxHZLwqzSQiHEMY3aMsoiALISrW1SA2uDvYcKw5vlmHgzzK+Zhji1LitXNoqXtClr6QL2uftqt8sc3yZZjEYpuc55hJKnRMZLtqt1PdidiLVC32x2TmbXnc95WGTlLjcTC0+GikSDfpOYEI0bNxkO171pZRy9eGNmxCTSLYMAphZhc8COcBPm6qpy5y0cAMh+RZyFW52v1le5vYce/WPKs4Ekxw/yZtfpWINuII+0Vn2tMT6ldzr8z/x2x4qTfhfcT4W7kzywgxef6445VEuFEK6wgIaOR5W1AObDTsOu/VXVxXLeSmTouNhm02bpdK1r3jYbnr411EVc6fL6tOSPU4PRvx3twn+0VhpJMVhFRGduac2VSxtrXqFc+5Mcm4ZZxDjpZcHr2idojpZusMWK6eIseHftXe+VuMkw+bYbEjDYnERrh5Y2+DxGQhmdCL7gDuT11zbs48ovhaYYfBcVBoaTfERc0GuI+56Rva2/nFd3BC8qOR2OyvSDGJoQ7SJMgJUlkCrrW3QK2Db7d41j5N9ibNcWok5tYEIurSnSWvwsgBb7QK6L/Z8+FSYaaSSd3hV+ajiJuFIAZiL7gdJQADbjXYKDifI7kxnGRCeVcLFixIFBEcpVgELG4Updu64DvVPcheyhLmGP+CSYTmGCMxJkJIK22KFBbjXTqq2a4WMZtg5NKh2jnUtYXKhYyAT1gXP20GTshKBlGMAAA+DycP0DX5SGS4sgEYeYg7g82+4+yv1vyxwEmIy/EwxAGSSF0UE2uzKQNzwqAwGZZ5FFHH8WRHQipf4WovpUC9ub24UH5swuT4oOpOHmsGBPyb8ARfqreCxSSSpKWjcys2/C5Y36J67HhX6M+Os9/wuH1xfd1+cOW7yvmeJMqCORpm1IG1hWJ3Aaw1ee1eSPg5KYtnCImsN3Lg9Ejz9Xmq/wpnEqFHzCZrixAII8oqMwC83gnkXVrQAL0rdXWOupTl1O4xUBRei2GgaTSdNiV4m3/ZqpbJe1d1nSzFYxW43rtAcocNm5Yu2IeewsTfpADyddfcDMr4NC9zL0rk8bh2t/C1dQyjJ3lViq8ADv11Dcn+SiTQazgJJTzswMi4hI9WnESr3DHa1tP1Vww2vnrO4j9/LZxdRh6TJFptMxrxvevGlKy0kMLXJvYAcSfIK63iMqeDJpec/GOUdh3vlY7D6hXrIsmOEOqLKSH8NsREzfUSdvqrez6TMMTh2hGBKayvSM8RACyKxNgbnZas4On4TynyrfU/qkdVHCsar/crpWu+FjZ1kKKXUEKxAJUNbUAeIvpF/MK2KVaYzlHKjKp8Vg83hgQySNjYiqggX0w4RjuSBwBqC5N5JnMQXnMJIugbAPFvx/wCO/XV+yrNYsK+ZzSkhFxigkAt3WGwqjYb8SKHsn5Ve3Ov+6k9muOalLxqzpjzTjnsl+RoxHwRPhCNHLd7qxBIHONpvpJHC3XVCzjDL8MLEBYzurKN2LXJu3Vb+NWKXsrZQvGWT9zJ7NW1MJCyg82hFrjoDr34W2rnlwRkpFazqIec92m0uR5zNE6GNWYnugeIJ4WPXwN/qqdw4tyet/mr/AFi1fvinDfQxfu1/6VB8uYEjy11RVVQ8WygAb4iMnYV70/T+lGtozMzO5Zs8+csB55/uRW9yt+b8X+zy/dNUDnWbxHMMEbTdEz3+Qn64bbDm7t9VaHLfl3hollwrxzXmwspjfmpB0tDghkZQwHA6gCON7Wqy8WHkHf4pwdjY/BovulpFm0qIWddfSmCnufxMrgAkLtqiXVfrKnhcV65A/NOC/ZYfulrz8Zgswkh1KzPEpUXJ0tIGXc7jRGWJG3VQbGBzkySiPmwLgtqDgggFgCmwLjoi9hsWHnrHg81kmkjCroVgWNzc9FYm0kFdj8oysOIK8eIr7hc8UmYspVIkDm4sQLuCCNV72QHcDZh5CdvA5ksrsgVwVHSLabX1ultmJJvG3ktQV3lf87ZR+txH9MaulUvlf87ZR+sxH9MaulApSlApSlApSlAqrY7LcemPkxOHGHZZIY4iJWdSDE8rXGlTx53+FWmlB+YuUGQ4jU8x09KaRmC7gMZm1WJ3te9r9VS2S4IS4d43YICP4+X+NWjMsJqgk/TlP/2vXOcJm25te1yp6r9VxWPa98lp4+0tHpJrwtS3utOTZBho5EidtZbpWPeBG4rpmDx8EK6FHHj5a5XkjQARm5JRtQJ3O+xHHYVJ4/NNUnR2A2vXC1rRftO1rB00X7WjULNkpvhcjP8Ant/TYmul1zHk/wDkeRfrT/S4munVvR4Ys+XPOXmaQYXNsrmnkEcarirsb2GqKMDgO+RXKeVmWu+JfEIQ8Mszyow61kcsp+sEV+lJI1biAfOL1ynlxhhonbYBXY+azGqnV5eERr3TxTq0SqkOVjEYQKXCENcD/vy1M8lMjwyzWLamj4tffccD39qo2GzPUulgwVtu8Rv1Vb8lxcKEOt76NBPfA62PWaz8nOtZi0/qGpakXycqx59/h1PKsfCXSNANrgefSb1YhXJOReOL5hECbXLkDrPybdVdaFaHRTacf3fKp1+KuPJERPtt7rin9pb8Xg/0pf5RV2uuKf2lvxeD/Sl/lFVxSTH9ngf+VSftDf6I66levzT2EeVxweM+DyuFgnO+rgstrIb9V+5P1d6v0tQfar2b/OeC/QxH+mKrDVWzPFxtm2DjDqXWPEFlBBKgrFYkcRe1BaaUpQK/JHZAI+OsXfh8Ja/m1V+tq/InZK+eMZ+vf+dHsTqXQeSuOw8ULpNDFKDv0wTYW4DyddXDN85w0WJgX4NEechjtJp7kFbovHYW4XrheVZ2wCqxsRsCfzhwsa6HHyjacozoBpVFWwNugLKfPWXet8dbVnf4alojNaL11+XQjn4isoAA41IdjWTVlyt35sQftxcxrkmdcoY1OqRwoAsFG5PmFdR7EEwfJ4HF7M8zC/lxMpqfQRk1M2Q66uKtaxX+XuulKUrRZpSlKDlfKSUphc3YeOxeXjFhBVBwuaRuOYniV0JupQBGU23IYDfh110hsblnPZlhsfLGqyYpX0M5QsFw+GKkFSDbUn8DWGPC8lVtaWEW3B5+X+equN8czO4QtWZly3OctgSNnjlZgNrOoUm4/Nsd7ddfpnBH5JP0V/kK51iIeS8kfNvLCVuWtz0nE8bHVcVZ4+XGUqABi4bAWHS6hXuOk18va10ksFmTyTNGYXQL+ebWJ8laHZB+b5P04v6iKvg5eZT45D6VQvLHlbl8+DaKHFRPIzxaVVrk2njJt9QNTpExHedpJvPPnLAeef7kVm5WYWMYPFy6F5w4aRS9hqKiNyBq42BYm3lNYc8+csB55/uRW9yt+b8V+zy/dNUhqcgj/wCU4P8AZYvulr5FnUBCiSNUBRJ9xqFnSWQHZe7HMOTe3kJO1a/IXHQDK8GrSoD8FiBGsAj5Jb9e1SSpglAAaIWtYhwCLKyCxvcWVmA7wJtQfBmmEXhYbAG0bWAYagCQth5RWXCZjhiypGRqbYAIRsuvjtsOi436wRx2rBzGAta8NtttYG4Qx348dB036xbvVljODVtQeIN3+cFz5zfpW4C/DqtQQPK/52yj9biP6Y1dKovKfExvm2U6HVrSYi+lgbf+GPeq9UClKUClKUClKUClKUHNcx5E5jIHRZ8MI2dyA0cpOl3ZgCQ43s1tqrrdh3Fk35/C3AttHLt/867ZVemyzE887I6qjyayA7KWH/hlN7Lx0RTDj+eu/WIVx1r4h7tQsP2LccnCbCfupf8AlJXmXsWY9iC2Iw23ejlH/wC6uzwZgoGpgxOhToZuISUOR8n0bsYyNtPR3tveayuCZVbnW1MWJ7q4tYDYaRpBtfTva53NPTp8OteoyVncWlUTlTYRcnw7MGaKcoWAIBthMTwBq/VWOVn5Xlv7U39Jias9TcXyqznXJXCTBjM7hWbe7KBd22G46yQAPNVmvWpj8MZECghbOjXIv+LkV7WuOOm3kvUbUrbzAp34KcsvqtLc9epOr/0VuJ2OsEosOc8909it0cnZQthiOKhTdWN9oQT+M4nmmP8A7h+v5Fk+IZjrkIAYcdXSVdfArLe93DXNiNCixsCE1rPmEq3tXxLDlHIXB4adZ4+c5xb2LMCOkCDcAC+xq0ileq9isR4LXtb+U7KonZQ5CvmqwBJVjMTMSGUkMHC9YNx3P8avdfCRXqLhEvYLlAYnEQKLX4SdGw3Ny3171b+SvJnO8IiqmYQTwgdFJEZhpPDS4Oq3e3IroeITUjLe1wRfja4tw66g1yCQWtNZgtgdLdSFBtznlO3lNBH5ll+eyqVXE4SIEWukUmoeZixt9lV/kJ2MsRgMwOMlxCS3V1Is+ol7blmJvw66tPxLidWnnejY2a21ucLhbCS5FiIylgNNyCDtVgwkWhFS9yqgXJJJsLXJYknhxJJ8poNmlKUCqZmfYxyjETPNLhy0kjFnbnZRdjxNg4A+qrnWDETogu7KouBdiALk2AuesmgoKdi/k+XdBhmuhs3ymIAB0q1tRfT3LqePXW+vY5ydLIEdeoKMTiBw3sBzvlH21Oy5NFIJGDfjnWTUNJ7lYgADbpIREuxvxNiNrYl5NRglg73N7bJYXYsLALtY29HymggH7FGRsbnDkk9ZnmJN+H95VsyPJ4MHAmHw6aIkvpXUzW1MWO7Ek7sTxrSh5PxKbB2JDrIQQhvZFQAjTw+SBB4gg+ap6gUpSgUpSg8aB3hTQO8PsqNxxk59VvIIyjboL/Kal06tjbo3tfone/VUfLmeLS6rEz2Qtco9ywkUAAjYkozWBK7oLkA3oLFoHeH2U0DvD7Kr82KxLll0MnymkMFexj52LcbjijPc7W0ta4sxHN8UFB5pr9C683IdjGHY6hx3uuw2I34igsGgd4fZTQO8PsqCjx+JC7xkt+g4BYL3IFzpBII17qLb3uK3cpxUrqTMoRrrYWK31Rox2JNyHZl/9NBHZ585YDzz/cip7EQrIjI4DKylWB4FWFiD5CDUDnnzlgPPP9yK3VzGd2cRwqyo5S5l03K2vtoNvtoI78HmT+IwehX09j7J/EoPQFSnwrF/QJ++/wBunwrF/QJ++/26CrZXyJyh5sQpwmHIEqhBpHc/B4WOnyamJ+upX8HuT+JQegKiuTPJR8Fi8TiI8OhM7XUc9+KU2Z1XobAvc7dQUdVWn4Vi/oE/ff7dBp5byNy3DyrLDhYY5FvpZVsRcEGx8xI+up+oz4Vi/oE/ff7dPhWL+gT99/t0EnSoXG5lio43kbDrpRSxtNvZQSbdDjtSgmqUpQKUpQKUpQKgMyixYnkeK9jEir0lI1KMSWsrGwJZoATbcebafpQVqPE446mVdS63UCyAjS86g7kdGyw+XpMeHCYy4SCJRJcvvqJ077nwdrW4eTy1u0oKxys/K8t/am/pMTVnqMznJcPilRZkLBG1rZmQq2krcFSDwYj66ju0bAeBL6xP7ygy43Jned5lOlrLos2ncBlbUQt+5Y2FyOBtcAjEcJixKq841iXa+slQBLDp/MFiY+cGkk8Sb33p2jYDwJfWJ/eU7RsB4EvrE/vKD1HgccEA5xWIC3u7DVtHzgvpuLsJSHG/TAsABbIMFi9RPO/nbDXtpubWAjGlrEDcsp0A23NYe0bAeBL6xP7ynaNgPAl9Yn95QZUwGMuCZF2IJszC9mXjdST0QRYk8a2MgafmyZtWq4te/AIoOxVbdIMTxFybG1raXaNgPAl9Yn95TtGwHgS+sT+8oLJUTnGXvM0bIQChvc7gjUhIKFSGB03uCrAqLEb1o9o2A8CX1if3lO0bAeBL6xP7ygwyYbMBpTnCWKm7ajYMVKghhEABq6ZVuF7KTwraGX4zV+M6Ou/4w3C65iLExngrQi3XoO/W2PtGwHgS+sT+8p2jYDwJfWJ/eUHhsrx9haUE6Su8jjdhh7nZd945yO9rHfNsqZfjAPxi3JJbptc3MpsG03SxeMi23QItvXntGwHgS+sT+8p2jYDwJfWJ/eUG/lOGxCF+ekD34WJ485KeFhpHNtELDrU+cytVvtGwHgS+sT+8p2jYDwJfWJ/eUFkrRzTBmVAgbTZ0e+/5kivbYgi+m179dRPaNgPAl9Yn95TtGwHgS+sT+8oNiTJ3LEmQblDYhiAYyNxd7gkDfyhTxvqwJkUwItONIABUq1msiqdR5y5Nw7g7WLDvG/ztGwHgS+sT+8p2jYDwJfWJ/eUHsZFJ0gJbKb7AEadTztqHS2cc8u/fjHk0yOWYBotd31ajfr2498nqt9lRfaNgPAl9Yn95TtGwHgS+sT+8oLJSq32jYDwJfWJ/eU7R8B4EvrE/vKCyUqudpGA8CX1jEe8r52jYDwJfWJ/eUFkpVb7RsB4EvrE/vKdo2A8CX1if3lBZK+Wqudo2A8CX1if3lO0bAeBL6xP7ygslKrfaNgPAl9Yn95TtGwHgS+sT+8oGefOWA88/3IqSyX++/Xv/ADFamX8lMHDKssaPrW+ktLK9tQsbBnI4VtZL/ffr3/mKDXxT4lZnKAlSV4gsLBd9PSAXfjtWvE+NQGy3JYklgzbEuLga+jbTGNAsLMT37ecPmOKBXWpIKncqbA84wDPZAV2CiwvxB8tbuBzGZ5dDwsgte5vYbAkXta9nj855wDuDQahxePDbopXURcJ+bqnCt3feTDn/ANw7bWHzDYnHmzSR2uFuAO41Jh+csA/SsxnsDc9EW7zbeAzGV3CtFbcgmzCwGqzbjcXUL37kHhWvh8xxC4eORlZpWX5SPTYRyc2zldlvbUvNjj3Sne/SDJhsTjiH1xJcRkoANIMgSMgatR2Ls48y/b6gxOMM6hkHNEjpaSDYicknpbEFYRa355P6OvLnWIBNoeDEbhzca5UG4XY2jDdYsw74Jzx5hM0yLoZVEhVjY2ICzixuNt442BvuJFH6QbfKL8jxH6mT7tqU5RfkeI/UyfdtSgkaUpQKUpQKUpQKUpQKUpQKUpQKUpQKUpQKUpQKUpQKUpQKUpQKUpQKUpQKUpQKUpQKUpQKUpQKUpQKUpQKUpQKjMl/vv17/wAxUnXNcz5XYjCzzxxpGRzzd0GJ3AJ4MKCzpnkisS6KUMrRIQVW7JJKCLs+50R3307na44ZMJn2ozMw6EUfOWHdbGTULHY7IpuNulsSCDVN/CHi/o4PRf26+DshYv6OD0X9uguzZ3dJiqgGKNnJYgi4aVRsNypMTG+2xHlth+PirENpcAAhk4ElCSttROpbA7XJDqAL8aeOyFi/o4PRf26HshYv6OD0X9uguI5URbHSbGRYwdS7ln0Ho3uLGx3ABVgQeqtjLM8SZwiqQdOo7jo9IjuTZiLqw1AWuPrqjfhCxf0cHov7dB2QsX9HB6L+3QdB5RfkeI/UyfdtSuaZty/xb4aVSkNjG4PRfhoP/HSg/9k=;" parent="1" vertex="1">
          <mxGeometry x="880" y="-200" width="508" height="154.39" as="geometry" />
        </mxCell>
        <mxCell id="-iayDu2l66xgWA1nQs0N-76" value="" style="shape=datastore;whiteSpace=wrap;html=1;align=right;verticalAlign=middle;" parent="1" vertex="1">
          <mxGeometry x="840" y="-70" width="180" height="160" as="geometry" />
        </mxCell>
        <mxCell id="-iayDu2l66xgWA1nQs0N-77" value="Model 01" style="outlineConnect=0;fontColor=#232F3E;gradientColor=none;fillColor=#FF9900;strokeColor=none;dashed=0;verticalLabelPosition=bottom;verticalAlign=top;align=center;html=1;fontSize=12;fontStyle=0;aspect=fixed;pointerEvents=1;shape=mxgraph.aws4.braket_tensor_network;" parent="1" vertex="1">
          <mxGeometry x="850" y="-10" width="48" height="48" as="geometry" />
        </mxCell>
        <mxCell id="-iayDu2l66xgWA1nQs0N-78" value="Model N" style="outlineConnect=0;fontColor=#232F3E;gradientColor=none;fillColor=#FF9900;strokeColor=none;dashed=0;verticalLabelPosition=bottom;verticalAlign=top;align=center;html=1;fontSize=12;fontStyle=0;aspect=fixed;pointerEvents=1;shape=mxgraph.aws4.braket_tensor_network;" parent="1" vertex="1">
          <mxGeometry x="960" y="-10" width="48" height="48" as="geometry" />
        </mxCell>
        <mxCell id="-iayDu2l66xgWA1nQs0N-79" value="Modelo 02" style="outlineConnect=0;fontColor=#232F3E;gradientColor=none;fillColor=#FF9900;strokeColor=none;dashed=0;verticalLabelPosition=bottom;verticalAlign=top;align=center;html=1;fontSize=12;fontStyle=0;aspect=fixed;pointerEvents=1;shape=mxgraph.aws4.braket_tensor_network;" parent="1" vertex="1">
          <mxGeometry x="906" y="17" width="48" height="48" as="geometry" />
        </mxCell>
        <mxCell id="-iayDu2l66xgWA1nQs0N-80" value="" style="shape=flexArrow;endArrow=classic;html=1;" parent="1" target="-iayDu2l66xgWA1nQs0N-30" edge="1">
          <mxGeometry width="50" height="50" relative="1" as="geometry">
            <mxPoint x="890" y="90" as="sourcePoint" />
            <mxPoint x="708" y="165" as="targetPoint" />
          </mxGeometry>
        </mxCell>
        <mxCell id="-iayDu2l66xgWA1nQs0N-81" value="" style="shape=flexArrow;endArrow=classic;html=1;exitX=0.244;exitY=0.988;exitDx=0;exitDy=0;exitPerimeter=0;" parent="1" source="-iayDu2l66xgWA1nQs0N-76" target="-iayDu2l66xgWA1nQs0N-29" edge="1">
          <mxGeometry width="50" height="50" relative="1" as="geometry">
            <mxPoint x="890" y="80" as="sourcePoint" />
            <mxPoint x="746.1781687242797" y="531" as="targetPoint" />
          </mxGeometry>
        </mxCell>
        <mxCell id="-iayDu2l66xgWA1nQs0N-82" value="Model Store" style="text;html=1;strokeColor=none;fillColor=none;align=center;verticalAlign=middle;whiteSpace=wrap;rounded=0;" parent="1" vertex="1">
          <mxGeometry x="891.51" y="-65.61" width="72.33" height="20" as="geometry" />
        </mxCell>
        <mxCell id="-iayDu2l66xgWA1nQs0N-86" value="DATA LAKE" style="text;html=1;strokeColor=none;fillColor=none;align=center;verticalAlign=middle;whiteSpace=wrap;rounded=0;fontStyle=1" parent="1" vertex="1">
          <mxGeometry x="690" y="239" width="83.03" height="20" as="geometry" />
        </mxCell>
        <mxCell id="Mb4YWiwYy1BoeR4oTHRL-1" value="Entregable Demo" style="text;html=1;strokeColor=none;fillColor=none;align=center;verticalAlign=middle;whiteSpace=wrap;rounded=0;fontColor=#FF9999;" vertex="1" parent="1">
          <mxGeometry x="657.66" y="540" width="128" height="20" as="geometry" />
        </mxCell>
      </root>
    </mxGraphModel>
  </diagram>
</mxfile>
